<?xml version="1.0" encoding="utf-8"?>
<!-- Generator: Adobe Illustrator 19.1.0, SVG Export Plug-In . SVG Version: 6.00 Build 0)  -->
<svg version="1.1" id="Capa_1" xmlns="http://www.w3.org/2000/svg" xmlns:xlink="http://www.w3.org/1999/xlink" x="0px" y="0px"
	 viewBox="0 0 810 277.3" style="enable-background:new 0 0 810 277.3;" xml:space="preserve">
<style type="text/css">
	.st0{fill:#F7B617;}
	.st1{fill:#FFFFFF;}
	.st2{fill:none;stroke:#D3D7D9;stroke-width:0.883;stroke-miterlimit:10;}
	.st3{fill:#2B2B2B;}
	.st4{fill:#E5E5E5;}
	.st5{fill:#3C3C3B;}
</style>
<g>
	<path class="st0" d="M72.4,157.1c2,1.1,2,2.5,2,3.8v5.4c0,0.9-0.7,1.8-1.6,1.8c-0.5,0-0.9-0.4-1.3-0.4L4.4,132.4
		c-1.8-0.9-2.9-2-2.9-3.4v-5.4c0-1.3,0.5-2.7,2.1-3.4l67.8-35.4c0.4-0.2,0.9-0.4,1.4-0.4c0.7,0,1.4,0.5,1.4,1.6v5.2
		c0,1.1-0.5,2.7-2.1,3.4l-60,31.5L72.4,157.1z"/>
	<path class="st3" d="M99.4,49.3h8.1c0.9,0,1.7,0.6,1.7,1.5v96c0,7.9,1.8,10.7,8.5,10.7h2c1.7,0,1.7,1.1,1.7,2.2v6.5
		c0,1.1-0.7,1.7-1.7,1.8c-1.8,0.2-3.5,0.2-4.4,0.2c-14.6,0-17.4-7.7-17.4-20.3V51C97.9,50.1,98.3,49.3,99.4,49.3"/>
	<path class="st3" d="M237.9,167.8c-9.6,0-17.5-3.7-21.6-8.7l-0.4,0.2v6.1c0,1.1-0.4,1.5-1.7,1.5h-7.2c-1.1,0-1.7-0.2-1.7-1.3V51
		c0-1.1,0.6-1.7,1.7-1.7h8.3c1.1,0,1.3,0.6,1.3,1.5v42.8l0.6,0.2c4.1-4.4,12.2-8.3,21.8-8.3c21.2,0,29,15.1,29,30.6v22.2
		C268,155.5,257.5,167.8,237.9,167.8 M256.8,116c0-11.3-5.7-20.9-19.9-20.9c-11.8,0-20.1,9.4-20.1,20.7v22.5
		c0,11.3,8.3,20.1,19.9,20.1c13.8,0,20.1-8.5,20.1-20.3V116z"/>
	<path class="st3" d="M311.6,168c-19.9,0-31.4-11.3-31.4-30.3v-22.3c0-18.1,11.4-30.1,31.2-30.1c19.6,0,31.2,11.3,31.2,30.1v22.1
		C342.6,156.9,330.8,168,311.6,168 M331.5,115.6c0-11.8-6.6-20.5-19.9-20.5c-12,0-20.1,8.5-20.1,20.3v22.3
		c0,12.2,6.3,20.7,19.9,20.7c13.7,0,19.9-8.3,20.1-20.9V115.6z"/>
	<path class="st3" d="M460,67.4c0-0.7,0.4-1.5,1.5-1.8l7.8-1.8c1.3-0.4,1.8,0.6,1.8,1.5v19.9h20.3c0.9,0,1.5,0.4,1.5,1.5V93
		c0,1.1-0.4,1.7-1.5,1.7h-20.3v48.9c0,9.2,2.8,13.8,10.9,13.8c3.9,0,8.5-0.5,11.3-1.3c2-0.4,2.6,0.6,2.8,1.7l1.1,5.7
		c0.2,1.5,0,1.8-1.5,2.4c-3.7,1.5-10.9,2-15.3,2c-15.9,0-20.3-9.4-20.3-22.1V67.4z"/>
	<path class="st3" d="M536.4,168c-19.9,0-31.4-11.3-31.4-30.3v-22.3c0-18.1,11.4-30.1,31.2-30.1c19.6,0,31.2,11.3,31.2,30.1v22.1
		C567.4,156.9,555.6,168,536.4,168 M556.3,115.6c0-11.8-6.6-20.5-19.9-20.5c-12,0-20.1,8.5-20.1,20.3v22.3
		c0,12.2,6.3,20.7,19.9,20.7c13.7,0,19.9-8.3,20.1-20.9V115.6z"/>
	<path class="st3" d="M634.3,69.4c-4.1,0-7.4-3.1-7.4-7.6c0-4.1,3.3-7.2,7.4-7.2c4.2,0,7.6,3.1,7.6,7.2
		C641.9,65.9,638.4,69.4,634.3,69.4 M628.4,86.7c0-1.1,0.6-1.5,1.5-1.5h8.3c1.1,0,1.7,0.6,1.7,1.5v78.9c0,0.9-0.4,1.3-1.5,1.3h-8.3
		c-0.9,0-1.7-0.4-1.7-1.3V86.7z"/>
	<path class="st0" d="M798,126l-60.1-31.3c-1.6-0.7-2.1-2.3-2.1-3.4v-5.2c0-1.1,0.7-1.6,1.4-1.6c0.5,0,0.9,0.2,1.4,0.4l67.8,35.4
		c1.6,0.7,2.1,2.1,2.1,3.4v5.4c0,1.4-0.9,2.5-2.9,3.4l-67.1,35.3c-0.5,0-0.7,0.4-1.3,0.4c-1.1,0-1.6-0.9-1.6-1.8v-5.4
		c0-1.3,0-2.7,2-3.8L798,126z"/>
	<path class="st3" d="M164.8,85.1l-14.4,0c-0.7,0-1.2,0.5-1.2,1.2v7.4c0,0.7,0.5,1.2,1.2,1.2l13.3,0c13.8,0,18.3,7.2,18.3,17.2v7.9
		l-0.7,0.4c-4.4-5-12.2-7.8-18.8-7.8c-18.8,0-29,12.4-29,27.9c0,16.2,9.8,27.5,27.5,27.5c8.1,0,16.2-2.6,21-9l0.9,0.2v6.5
		c0,0.6,0.2,1.3,1.3,1.3h7.6c0.9,0,1.5-0.6,1.5-1.7v-51.7C193.2,95.8,185.8,85.1,164.8,85.1 M162.6,158.6
		c-12.9,0-18.6-8.1-18.6-18.5c0-10.2,7-18.5,18.8-18.5c12,0,18.5,8.3,18.5,18.3C181.2,150.3,173.6,158.6,162.6,158.6"/>
	<path class="st3" d="M419.3,85.1l-14.4,0c-0.7,0-1.2,0.5-1.2,1.2v7.4c0,0.7,0.5,1.2,1.2,1.2l13.3,0c13.8,0,18.3,7.2,18.3,17.2v7.9
		l-0.7,0.4c-4.4-5-12.2-7.8-18.8-7.8c-18.8,0-29,12.4-29,27.9c0,16.2,9.8,27.5,27.5,27.5c8.1,0,16.2-2.6,21-9l0.9,0.2v6.5
		c0,0.6,0.2,1.3,1.3,1.3h7.6c0.9,0,1.5-0.6,1.5-1.7v-51.7C447.7,95.8,440.4,85.1,419.3,85.1 M417.1,158.6
		c-12.9,0-18.6-8.1-18.6-18.5c0-10.2,7-18.5,18.8-18.5c12,0,18.5,8.3,18.5,18.3C435.8,150.3,428.2,158.6,417.1,158.6"/>
	<path class="st3" d="M683.6,85.1l-14.4,0c-0.7,0-1.2,0.5-1.2,1.2v7.4c0,0.7,0.5,1.2,1.2,1.2l13.3,0c13.8,0,18.3,7.2,18.3,17.2v7.9
		l-0.7,0.4c-4.4-5-12.2-7.8-18.8-7.8c-18.8,0-29,12.4-29,27.9c0,16.2,9.8,27.5,27.5,27.5c8.1,0,16.2-2.6,21-9l0.9,0.2v6.5
		c0,0.6,0.2,1.3,1.3,1.3h7.6c0.9,0,1.5-0.6,1.5-1.7v-51.7C712.1,95.8,704.7,85.1,683.6,85.1 M681.4,158.6
		c-12.9,0-18.6-8.1-18.6-18.5c0-10.2,7-18.5,18.8-18.5c12,0,18.5,8.3,18.5,18.3C700.1,150.3,692.5,158.6,681.4,158.6"/>
	<path class="st3" d="M385.3,95c-13.3,0-19.2,11.7-19.2,24.3v46.1c0,1.1-0.4,1.5-1.5,1.5h-8.3c-0.9,0-1.7-0.4-1.7-1.3V87.9
		c0-1.1,0.6-1.5,1.5-1.5h7.2c1.1,0,1.5,0.6,1.5,1.5v10.2h0.6c4.4-7.2,13.1-12.9,22.3-12.9l2.6,0c0.7,0,1.2,0.5,1.2,1.2v7.5
		c0,0.7-0.5,1.2-1.2,1.2L385.3,95z"/>
	<path class="st3" d="M610.2,95c-13.3,0-19.2,11.7-19.2,24.3v46.1c0,1.1-0.4,1.5-1.5,1.5h-8.3c-0.9,0-1.7-0.4-1.7-1.3V87.9
		c0-1.1,0.6-1.5,1.5-1.5h7.2c1.1,0,1.5,0.6,1.5,1.5v10.2h0.6c4.4-7.2,13.1-12.9,22.3-12.9l2.6,0c0.7,0,1.2,0.5,1.2,1.2v7.5
		c0,0.7-0.5,1.2-1.2,1.2L610.2,95z"/>
</g>
<g>
	<path class="st3" d="M184.9,202c6.1,0,9.1,3.6,9.1,3.6l-1.7,2.5c0,0-2.8-3-7.3-3c-5.4,0-9.7,4.1-9.7,10c0,5.8,4.3,10,9.8,10
		c5,0,8-3.5,8-3.5l1.5,2.6c0,0-3.4,3.9-9.7,3.9c-7.4,0-13-5.3-13-13C171.8,207.4,177.5,202,184.9,202z"/>
	<path class="st3" d="M212,202c7.3,0,13.1,5.5,13.1,12.9c0,7.5-5.9,13.1-13.1,13.1c-7.3,0-13.1-5.6-13.1-13.1
		C198.8,207.5,204.7,202,212,202z M212,225c5.3,0,9.7-4.3,9.7-10.1c0-5.6-4.3-9.8-9.7-9.8c-5.3,0-9.7,4.2-9.7,9.8
		C202.3,220.7,206.6,225,212,225z"/>
	<path class="st3" d="M240.9,202c6,0,8.1,4.7,8.1,4.7h0.1c0,0-0.1-0.8-0.1-1.9v-12.1h3.4v34.7h-3.3v-2.6c0-1.1,0.1-1.8,0.1-1.8h-0.1
		c0,0-2,5-8.5,5c-6.7,0-10.8-5.3-10.8-13C229.8,207.1,234.4,202,240.9,202z M241.1,225c4.1,0,8.1-3,8.1-10c0-5-2.6-10-7.9-10
		c-4.4,0-8,3.7-8,10C233.2,221.1,236.4,225,241.1,225z"/>
	<path class="st3" d="M271,202c6.9,0,10.4,5.3,10.4,11.5c0,0.6-0.1,1.7-0.1,1.7h-19.1c0.1,6.4,4.5,9.8,9.6,9.8c4.5,0,7.6-3,7.6-3
		l1.5,2.6c0,0-3.6,3.5-9.2,3.5c-7.4,0-13-5.3-13-13C258.8,206.9,264.3,202,271,202z M278,212.4c-0.2-5.2-3.4-7.6-7.1-7.6
		c-4.1,0-7.8,2.6-8.5,7.6H278z"/>
	<path class="st3" d="M302,205.7h-3.3v-2.8h3.3v-7.2h3.3v7.2h6.2v2.8h-6.2V218c0,5.8,3.7,6.6,5.6,6.6c0.7,0,1.1-0.1,1.1-0.1v3
		c0,0-0.5,0.1-1.4,0.1c-2.9,0-8.6-0.9-8.6-9.2V205.7z"/>
	<path class="st3" d="M317.7,192.7h3.4v13.4c0,1.1-0.1,2-0.1,2h0.1c0.9-2.4,4.2-6.2,9.9-6.2c6.1,0,8.3,3.5,8.3,9.6v15.8h-3.4v-14.9
		c0-3.9-0.6-7.4-5.4-7.4c-4.2,0-7.9,2.9-9,7.1c-0.3,1-0.4,2.1-0.4,3.3v11.9h-3.4V192.7z"/>
	<path class="st3" d="M360.1,212.1h1.4v-0.6c0-4.8-2.6-6.4-6.2-6.4c-4.1,0-7,2.4-7,2.4l-1.6-2.6c0,0,3.3-2.8,8.8-2.8
		c6,0,9.3,3.3,9.3,9.5v15.9h-3.2v-2.7c0-1.2,0.1-2.1,0.1-2.1h-0.1c0,0-2.1,5.4-8.3,5.4c-4.1,0-8.4-2.4-8.4-7.4
		C344.9,212.3,355.8,212.1,360.1,212.1z M353.9,225.2c4.7,0,7.6-4.9,7.6-9.2v-1.1h-1.4c-3.9,0-11.7,0.1-11.7,5.6
		C348.4,222.8,350.2,225.2,353.9,225.2z"/>
	<path class="st3" d="M373.4,205.7h-3.3v-2.8h3.3v-7.2h3.3v7.2h6.2v2.8h-6.2V218c0,5.8,3.7,6.6,5.6,6.6c0.7,0,1.1-0.1,1.1-0.1v3
		c0,0-0.5,0.1-1.4,0.1c-2.9,0-8.6-0.9-8.6-9.2V205.7z"/>
	<path class="st3" d="M403.3,205.7H400v-2.8h3.3v-7.2h3.3v7.2h6.2v2.8h-6.2V218c0,5.8,3.7,6.6,5.6,6.6c0.7,0,1.1-0.1,1.1-0.1v3
		c0,0-0.5,0.1-1.4,0.1c-2.9,0-8.6-0.9-8.6-9.2V205.7z"/>
	<path class="st3" d="M418.9,202.6h3.3v4.4c0,1.1-0.1,2-0.1,2h0.1c1.2-3.8,4-6.6,7.9-6.6c0.7,0,1.3,0.1,1.3,0.1v3.3
		c0,0-0.6-0.1-1.2-0.1c-3.5,0-6.1,2.8-7.2,6.4c-0.5,1.6-0.7,3.3-0.7,4.8v10.5h-3.4V202.6z"/>
	<path class="st3" d="M449.7,212.1h1.4v-0.6c0-4.8-2.6-6.4-6.2-6.4c-4.1,0-7,2.4-7,2.4l-1.6-2.6c0,0,3.3-2.8,8.8-2.8
		c6,0,9.3,3.3,9.3,9.5v15.9h-3.2v-2.7c0-1.2,0.1-2.1,0.1-2.1h-0.1c0,0-2.1,5.4-8.3,5.4c-4.1,0-8.4-2.4-8.4-7.4
		C434.4,212.3,445.4,212.1,449.7,212.1z M443.4,225.2c4.7,0,7.6-4.9,7.6-9.2v-1.1h-1.4c-3.9,0-11.7,0.1-11.7,5.6
		C437.9,222.8,439.7,225.2,443.4,225.2z"/>
	<path class="st3" d="M462.2,202.6h3.3v3.7c0,1.1-0.1,2-0.1,2h0.1c0.9-2.3,4.1-6.3,9.9-6.3c6.1,0,8.3,3.5,8.3,9.6v15.8h-3.4v-14.9
		c0-3.9-0.6-7.4-5.4-7.4c-4.2,0-7.9,2.9-9,7c-0.3,1-0.4,2.2-0.4,3.4v11.9h-3.4V202.6z"/>
	<path class="st3" d="M491.3,222c0,0,2.8,3,7.4,3c2.7,0,5-1.3,5-4c0-5.4-13.4-4.1-13.4-12.2c0-4.4,4-6.9,8.5-6.9
		c5.2,0,7.7,2.7,7.7,2.7l-1.5,2.6c0,0-2.1-2.3-6.2-2.3c-2.5,0-4.9,1.1-4.9,3.9c0,5.5,13.4,4,13.4,12.2c0,4.1-3.5,7-8.5,7
		c-6,0-9.2-3.6-9.2-3.6L491.3,222z"/>
	<path class="st3" d="M514.5,205.7h-3.1v-2.8h3.1v-1.2c0-8.2,5.8-9.2,8.6-9.2c0.9,0,1.5,0.1,1.5,0.1v3c0,0-0.5-0.1-1.2-0.1
		c-1.9,0-5.6,0.7-5.6,6.2v1.2h6.4v2.8h-6.4v21.7h-3.4V205.7z"/>
	<path class="st3" d="M540.3,202c7.3,0,13.1,5.5,13.1,12.9c0,7.5-5.9,13.1-13.1,13.1c-7.3,0-13.1-5.6-13.1-13.1
		C527.1,207.5,533,202,540.3,202z M540.3,225c5.3,0,9.7-4.3,9.7-10.1c0-5.6-4.3-9.8-9.7-9.8s-9.7,4.2-9.7,9.8
		C530.6,220.7,534.9,225,540.3,225z"/>
	<path class="st3" d="M559.7,202.6h3.3v4.4c0,1.1-0.1,2-0.1,2h0.1c1.2-3.8,4-6.6,7.9-6.6c0.7,0,1.3,0.1,1.3,0.1v3.3
		c0,0-0.6-0.1-1.2-0.1c-3.5,0-6.1,2.8-7.2,6.4c-0.5,1.6-0.7,3.3-0.7,4.8v10.5h-3.4V202.6z"/>
	<path class="st3" d="M577.3,202.6h3.3v3.7c0,1.1-0.1,2-0.1,2h0.1c1.2-3.4,5.1-6.3,9-6.3c4.6,0,7,2.1,7.7,6.2h0.1
		c1.3-3.4,4.9-6.2,9.1-6.2c6,0,8.3,3.5,8.3,9.6v15.8h-3.4v-15c0-4.1-0.8-7.4-5.4-7.4c-3.8,0-6.9,3.4-7.9,7c-0.3,1.1-0.4,2.3-0.4,3.6
		v11.8h-3.4v-15c0-3.8-0.5-7.4-5.2-7.4c-4.1,0-7.1,3.5-8.2,7.3c-0.2,1-0.3,2.2-0.3,3.3v11.8h-3.4V202.6z"/>
	<path class="st3" d="M622.3,222c0,0,2.8,3,7.4,3c2.7,0,5-1.3,5-4c0-5.4-13.4-4.1-13.4-12.2c0-4.4,4-6.9,8.5-6.9
		c5.2,0,7.7,2.7,7.7,2.7l-1.5,2.6c0,0-2.1-2.3-6.2-2.3c-2.5,0-4.9,1.1-4.9,3.9c0,5.5,13.4,4,13.4,12.2c0,4.1-3.5,7-8.5,7
		c-6,0-9.2-3.6-9.2-3.6L622.3,222z"/>
</g>
</svg>
